<svg id="circom-logo" width="1000" height="270" version="1.1" viewBox="0 0 270 54" xmlns="http://www.w3.org/2000/svg"><defs><linearGradient id="a" x1="230" x2="295" y1="200" y2="230" gradientUnits="userSpaceOnUse"><stop stop-color="#bfe4ff" offset=".333"/><stop stop-color="#0f23bd" offset=".667"/><stop stop-color="#002b8b" offset="1"/></linearGradient><linearGradient id="b" x1="131.56" x2="131.56" y1="200" y2="212.85" gradientUnits="userSpaceOnUse"><stop stop-color="#1d0772" offset="0"/><stop stop-color="#290aa3" offset=".5"/><stop stop-color="#1d0772" offset="1"/></linearGradient></defs><g stroke-miterlimit="10"><path d="M236.42 223.18c-1.007-1.007-2.014 0-6.042 3.02-6.041 6.042-16.11 8.056-24.167 4.029-8.055-3.021-16.11-14.097-13.09-16.111 4.028-2.014 8.056-2.014 13.09 0 5.035 3.02 9.063 4.027 11.076 1.007 1.007-1.007 1.007-1.007-1.007-4.028-2.013-2.014-3.02-2.014-10.069-2.014-12.083 1.007-14.097 0-9.062-7.049 6.042-10.069 18.125-11.076 29.201-2.014 2.014 2.014 4.028 3.021 4.028 3.021 1.007 0 1.007-8.055 0-18.125 0-13.09 0-18.125 1.007-17.118 2.014 2.014 17.118 21.146 23.16 30.208.548.822 1.114 1.662 1.689 2.506.575-.844 1.141-1.684 1.69-2.506 6.04-9.062 21.145-28.194 23.16-30.208 1.006-1.007 1.006 4.028 1.006 17.118-1.007 10.07-1.007 18.125 0 18.125 0 0 2.014-1.007 4.028-3.02 11.076-9.063 23.16-8.056 29.2 2.013 5.036 7.049 3.022 8.056-9.062 7.049-7.048 0-8.055 0-10.069 2.014-2.014 3.02-2.014 3.02-1.007 4.028 2.014 3.02 6.042 2.013 11.076-1.007 5.035-2.014 9.063-2.014 13.09 0 3.021 2.014-5.034 13.09-13.09 16.11-8.055 4.028-18.125 2.015-24.167-4.027-4.027-3.021-5.034-4.028-6.041-3.021-3.444 2.583-12.775 6.637-19.814 8.388-7.04-1.75-16.371-5.805-19.814-8.388zm7.049-12.083c2.013-2.014 1.006-4.028-1.007-6.042-4.028-4.027-9.063 0-6.042 4.028 2.014 3.021 5.035 4.028 7.049 2.014zm32.58-2.014c3.02-4.028-2.014-8.055-6.042-4.028-2.014 2.014-3.02 4.028-1.007 6.042 2.014 2.014 5.035 1.007 7.049-2.014z" fill="url(#a)" transform="matrix(1.125 0 0 1.1276 -90.002 -198.52)"/><path d="M96.445 212.85H86.314c-.196 0-.356-.033-.48-.098a1.345 1.345 0 01-.37-.273l-.175-.218-4.853-4.81c-.29-.297-.436-.715-.436-1.253v-14.275c0-.437.16-.851.48-1.244l2.966-2.977c.298-.363.643-.545 1.036-.545h11.593c.29 0 .436.145.436.436v3.893c0 .291-.145.437-.436.437h-9.837l-1.101 1.101v12.116l2.933 2.934h8.376c.29 0 .436.145.436.436v3.893c0 .298-.145.447-.436.447zm7.405-21.582v21.135c0 .298-.146.447-.436.447H99.16c-.298 0-.447-.149-.447-.447v-21.135c0-.298.15-.447.447-.447h4.254c.29 0 .436.149.436.447zm14.319 21.135v-2.53l-2.683-2.716h-4.297v5.246c0 .298-.145.447-.436.447H106.5c-.298 0-.447-.149-.447-.447v-21.135c0-.298.149-.447.447-.447h12.323c.392 0 .738.185 1.036.556l2.595 2.606c.32.32.48.735.48 1.244v5.649c0 .443-.145.861-.436 1.254l-2.53 2.53 3.01 3.01c.218.32.327.6.327.84v3.893c0 .298-.15.447-.447.447h-4.253c-.291 0-.436-.15-.436-.447zm-6.98-16.805v6.783h4.406l2.203-2.192v-3.49l-1.101-1.101zm28.551 17.252h-7.917c-.196 0-.356-.033-.48-.098a1.345 1.345 0 01-.37-.273l-.186-.218-4.842-4.81c-.29-.297-.436-.715-.436-1.253v-10.6c0-.444.16-.862.48-1.254l2.966-2.967c.29-.37.632-.556 1.025-.556h9.76c.298 0 .447.15.447.447v3.883c0 .298-.149.447-.447.447h-7.993l-1.102 1.101v8.44l2.934 2.935h6.161c.298 0 .448.145.448.436v3.893c0 .298-.15.447-.448.447zm15.78 0h-9.019c-.196 0-.356-.033-.48-.098a1.345 1.345 0 01-.37-.273l-.186-.218-3.01-2.977c-.29-.291-.436-.705-.436-1.243v-12.443c0-.444.16-.862.48-1.254l2.967-2.967c.298-.37.643-.556 1.035-.556h9.02c.392 0 .737.185 1.035.556l2.967 2.967c.32.392.48.81.48 1.254v12.443c0 .538-.146.952-.437 1.243l-3.01 2.977-.185.218a1.344 1.344 0 01-.37.273 1.024 1.024 0 01-.48.098zm-.654-16.151l-1.101-1.101h-5.508l-1.101 1.101v10.273l1.101 1.101h5.508l1.101-1.101zm7.776-5.878h3.893c.145 0 .287.025.425.076.131.051.23.102.295.153.058.044.16.153.305.327.145.167.258.29.338.37l4.766 4.767 4.765-4.766c.08-.08.178-.185.295-.316.123-.138.21-.226.262-.262.05-.036.123-.091.218-.164a.894.894 0 01.272-.141.982.982 0 01.317-.044h3.893c.29 0 .436.149.436.447v21.135c0 .298-.145.447-.436.447h-4.264c-.291 0-.436-.149-.436-.447V198.02l-4.7 4.7c-.219.219-.426.328-.622.328-.197 0-.404-.11-.622-.328l-4.7-4.7v14.384c0 .298-.146.447-.437.447h-4.264c-.29 0-.436-.149-.436-.447v-21.135c0-.298.146-.447.436-.447z" fill="url(#b)" transform="matrix(1.125 0 0 1.1276 -90.002 -198.52)"/></g></svg>