<?xml version="1.0" encoding="utf-8"?><svg viewBox="0 0 256 256" xmlns="http://www.w3.org/2000/svg" xmlns:xlink="http://www.w3.org/1999/xlink"><style>:root>svg{display:none}:root>svg:target{display:block}</style><svg fill="none" viewBox="0 0 24 24" id="arrow-right" xmlns="http://www.w3.org/2000/svg"><path d="M10.74 15.53L14.26 12l-3.52-3.53"/></svg><svg viewBox="0 0 256 256" id="email" xmlns="http://www.w3.org/2000/svg"><g transform="translate(1.964 1.964) scale(2.8008)" stroke-width="0" stroke-miterlimit="10"><path d="M80.89 78.772H9.11c-5.023 0-9.11-4.087-9.11-9.11V20.338c0-5.023 4.087-9.11 9.11-9.11h71.78c5.023 0 9.11 4.087 9.11 9.11v49.324c0 5.024-4.087 9.11-9.11 9.11zM9.11 17.228A3.114 3.114 0 006 20.338v49.324a3.113 3.113 0 003.11 3.11h71.78a3.114 3.114 0 003.11-3.11V20.338a3.114 3.114 0 00-3.11-3.11H9.11z"/><path d="M45 55.427a19.313 19.313 0 01-14.242-6.288L2.493 18.125l4.435-4.042 28.265 31.013c2.545 2.792 6.028 4.331 9.807 4.331 3.779 0 7.262-1.538 9.808-4.331l28.266-31.013 4.434 4.042-28.267 31.013A19.307 19.307 0 0145 55.427z"/><rect x="-.96" y="57.16" rx="0" ry="0" width="38.98" height="6" transform="rotate(-45.146 18.528 60.161)"/><rect x="68.47" y="40.67" rx="0" ry="0" width="6" height="38.98" transform="rotate(-44.85 71.466 60.158)"/></g></svg><svg fill="none" viewBox="0 0 24 24" id="folder-add" xmlns="http://www.w3.org/2000/svg"><path d="M12.06 16.5v-5M14.5 14h-5"/><path clip-rule="evenodd" d="M22 11v6c0 4-1 5-5 5H7c-4 0-5-1-5-5V7c0-4 1-5 5-5h1.5c1.5 0 1.83.44 2.4 1.2l1.5 2c.38.5.6.8 1.6.8h3c4 0 5 1 5 5z"/></svg><svg viewBox="0 0 27 40" id="long-work" xmlns="http://www.w3.org/2000/svg"><mask id="da" style="mask-type:alpha" maskUnits="userSpaceOnUse" x="0" y="0" width="27" height="40"><path fill-rule="evenodd" clip-rule="evenodd" d="M0 40V0h26.907v40H0z"/></mask><g mask="url(#da)" fill-rule="evenodd" clip-rule="evenodd"><path d="M5.687 24.816h4.161c.086 0 .17.028.24.078l3.366 2.446 3.367-2.446a.408.408 0 01.24-.078h4.16l1.286-3.957a.411.411 0 01.148-.204l3.367-2.446-1.286-3.957a.408.408 0 010-.252l1.286-3.958-3.367-2.446a.41.41 0 01-.148-.203l-1.286-3.958h-4.16a.407.407 0 01-.24-.078L13.454.911l-3.366 2.446a.407.407 0 01-.24.078H5.687L4.4 7.393a.406.406 0 01-.148.203L.887 10.042 2.172 14a.409.409 0 010 .252L.887 18.209l3.366 2.446c.07.05.122.122.148.204l1.286 3.957zm7.767 3.435a.405.405 0 01-.24-.078l-3.498-2.542H5.391a.408.408 0 01-.388-.281l-1.336-4.113-3.499-2.543a.408.408 0 01-.148-.455l1.337-4.113L.02 10.013a.408.408 0 01.148-.456l3.499-2.542 1.336-4.113a.408.408 0 01.388-.282h4.325L13.215.078a.407.407 0 01.479 0l3.498 2.542h4.325c.177 0 .334.114.388.282l1.336 4.113 3.5 2.542a.408.408 0 01.148.456l-1.337 4.113 1.337 4.113a.408.408 0 01-.148.455l-3.5 2.543-1.336 4.113a.408.408 0 01-.388.281h-4.325l-3.498 2.542a.406.406 0 01-.24.078z"/><path d="M13.454 5.792c-4.595 0-8.334 3.738-8.334 8.334s3.739 8.334 8.334 8.334c4.596 0 8.335-3.738 8.335-8.334s-3.74-8.334-8.335-8.334zm0 17.483c-5.045 0-9.149-4.104-9.149-9.149 0-5.045 4.104-9.149 9.15-9.149 5.044 0 9.149 4.104 9.149 9.15 0 5.044-4.105 9.148-9.15 9.148z"/><path d="M13.454 16.599a.41.41 0 01.2.052l2.49 1.4-.562-2.801a.407.407 0 01.124-.38l2.1-1.935-2.837-.332a.407.407 0 01-.323-.234l-1.192-2.596-1.192 2.596a.407.407 0 01-.323.234l-2.837.332 2.101 1.935c.104.097.151.24.123.38l-.561 2.8 2.49-1.399a.41.41 0 01.2-.052m3.263 2.649a.404.404 0 01-.2-.053l-3.064-1.721-3.064 1.721a.408.408 0 01-.599-.435l.691-3.446-2.584-2.382a.407.407 0 01.229-.704l3.49-.407 1.467-3.194a.407.407 0 01.74 0l1.467 3.194 3.49.407a.407.407 0 01.23.704l-2.585 2.382.691 3.446a.408.408 0 01-.4.488M18.736 40a.41.41 0 01-.261-.095l-5.022-4.2-5.02 4.2a.408.408 0 01-.67-.312V25.22a.408.408 0 01.815 0v13.5l4.614-3.86a.408.408 0 01.523 0l4.614 3.86v-13.5a.408.408 0 01.815 0v14.372a.407.407 0 01-.408.407z"/><path d="M11.315 37.37a.406.406 0 01-.405-.408V26.533c0-.225.182-.407.405-.407.223 0 .405.182.405.407v10.43a.407.407 0 01-.405.407zM15.592 37.37a.406.406 0 01-.405-.408V26.533c0-.225.181-.407.405-.407.223 0 .404.182.404.407v10.43a.406.406 0 01-.404.407z"/></g></svg><svg fill="none" viewBox="0 0 24 24" id="menu" xmlns="http://www.w3.org/2000/svg"><path d="M3 7h12M3 12h18M3 17h15"/></svg><svg viewBox="0 0 21 40" id="outdoor-furniture" xmlns="http://www.w3.org/2000/svg"><mask id="fa" style="mask-type:alpha" maskUnits="userSpaceOnUse" x="0" y="0" width="21" height="40"><path fill-rule="evenodd" clip-rule="evenodd" d="M0 40V0h20.52v40H0z"/></mask><g mask="url(#fa)" fill-rule="evenodd" clip-rule="evenodd"><path d="M3.124 17.952h14.271L15.868 1.998A1.195 1.195 0 0014.674.913H5.846c-.622 0-1.135.466-1.194 1.085L3.124 17.952zm14.773.913H2.623a.457.457 0 01-.455-.5L3.743 1.91A2.104 2.104 0 015.846 0h8.828c1.094 0 1.998.82 2.102 1.91l1.575 16.454a.456.456 0 01-.454.5"/><path d="M2.048 18.865a1.136 1.136 0 000 2.27h16.424a1.136 1.136 0 000-2.27H2.048zm16.424 3.183H2.048A2.05 2.05 0 010 20a2.05 2.05 0 012.048-2.048h16.424A2.05 2.05 0 0120.52 20a2.05 2.05 0 01-2.048 2.048zM17.633 16.054H2.888a.454.454 0 01-.457-.452c0-.25.205-.453.457-.453h14.745c.252 0 .456.202.456.453 0 .25-.204.452-.456.452z"/><path d="M1.666 40H.456a.456.456 0 01-.454-.496l1.591-17.957a.456.456 0 11.909.08L.954 39.087h.335L3.95 25.232a4.807 4.807 0 012.407-3.312l1.326-.732a.456.456 0 11.441.8l-1.327.731a3.897 3.897 0 00-1.951 2.685L2.114 39.63a.456.456 0 01-.448.37M20.063 40h-1.21a.456.456 0 01-.448-.37l-2.733-14.227a3.896 3.896 0 00-1.951-2.685l-1.327-.732a.456.456 0 11.44-.799l1.327.732a4.805 4.805 0 012.407 3.312l2.662 13.857h.334l-1.547-17.461a.456.456 0 11.909-.08l1.591 17.957a.456.456 0 01-.454.496"/></g></svg><svg viewBox="0 0 256 256" id="phone" xmlns="http://www.w3.org/2000/svg"><path d="M196.101 254.109c-38.186.005-86.418-30.655-124.988-69.222-52.302-52.3-90.065-122.39-56.529-161.077 2.132-2.459 4.857-4.347 8.098-5.618 4-1.569 11.245-4.624 21.53-9.086l.022-.008a2737.586 2737.586 0 0012.88-5.627 17.878 17.878 0 0122.533 7.246l29.148 49.123a17.953 17.953 0 01.378 17.564l-17.463 32.53 54.355 54.356 32.526-17.463a17.959 17.959 0 0117.566.378l45.634 27.078 6.041 3.907a17.883 17.883 0 014.694 20.698 2235.459 2235.459 0 00-4.694 10.73l2.118-4.86-3.157 7.252c-4.336 10.002-7.442 17.365-8.99 21.314-1.27 3.238-3.16 5.963-5.613 8.094-10.156 8.803-22.488 12.69-36.089 12.69zM52.322 26.96c-10.662 4.624-18.227 7.817-22.484 9.486a1.815 1.815 0 00-.48.247c-23.98 27.666 9.817 88.528 55.619 134.33 45.801 45.798 106.652 79.592 134.365 55.584h-.002c-.006 0 .092-.137.213-.44 1.686-4.296 4.876-11.861 9.489-22.493l4.887-11.262-46.927-27.846-32.8 17.609a17.763 17.763 0 01-21.082-3.109l-56.184-56.184a17.76 17.76 0 01-3.11-21.082l17.61-32.8L63.573 22.05c-3.232 1.42-7.167 3.14-11.25 4.912z" stroke-width="0" stroke-miterlimit="10"/></svg><svg viewBox="0 0 37 40" id="prof-equipment" xmlns="http://www.w3.org/2000/svg"><mask id="ha" style="mask-type:alpha" maskUnits="userSpaceOnUse" x="0" y="0" width="37" height="40"><path fill-rule="evenodd" clip-rule="evenodd" d="M0 40V0h36.184v40H0z"/></mask><g mask="url(#ha)" fill-rule="evenodd" clip-rule="evenodd"><path d="M32.639 29.602v.201a.46.46 0 01-.46.46h-9.43a.46.46 0 01-.46-.46v-.201h10.35zm-9.89 1.55h9.43a1.35 1.35 0 001.348-1.349v-.646a.444.444 0 00-.444-.444H21.845a.444.444 0 00-.444.444v.646a1.35 1.35 0 001.348 1.348M15.806 39.111H.889v-.615c0-.609.496-1.105 1.105-1.105h12.71c.609 0 1.104.496 1.104 1.105v.615zM.444 40H16.25a.444.444 0 00.444-.444v-1.06c0-1.099-.894-1.993-1.993-1.993H1.993c-1.1 0-1.993.894-1.993 1.993v1.06C0 39.8.199 40 .444 40"/><path d="M14.343 37.26a.445.445 0 00.428-.561l-2.25-8.28a.444.444 0 10-.856.234l2.25 8.28a.444.444 0 00.428.327M2.369 37.26c.195 0 .374-.13.427-.328l2.251-8.279a.444.444 0 10-.856-.234l-2.25 8.28a.445.445 0 00.428.56"/><path d="M8.355 19.17a5.178 5.178 0 015.172 5.173c0 2.851-2.32 5.17-5.172 5.17a5.177 5.177 0 01-5.171-5.17 5.178 5.178 0 015.171-5.172zm0 11.232a6.067 6.067 0 006.06-6.06 6.067 6.067 0 00-6.06-6.06 6.067 6.067 0 00-6.06 6.06 6.067 6.067 0 006.06 6.06z"/><path d="M8.355 22.172c1.197 0 2.17.973 2.17 2.17s-.973 2.17-2.17 2.17a2.174 2.174 0 01-2.17-2.17c0-1.197.973-2.17 2.17-2.17zm0 5.23a3.062 3.062 0 003.06-3.06 3.062 3.062 0 00-3.06-3.059 3.063 3.063 0 00-3.06 3.06 3.063 3.063 0 003.06 3.058zM9.843 19.378a.444.444 0 00.435-.357c.018-.092.026-.19.026-.289V8.324h19.288a1.947 1.947 0 001.944-1.944 1.947 1.947 0 00-1.944-1.946H8.359A1.947 1.947 0 006.415 6.38v12.352c0 .09.006.173.017.256a.444.444 0 00.88-.119.986.986 0 01-.008-.137V6.38c0-.583.473-1.057 1.055-1.057h21.233a1.057 1.057 0 010 2.113H9.86a.444.444 0 00-.444.444v10.852a.592.592 0 01-.009.113.444.444 0 00.436.533"/><path d="M28.337 10.996h-1.746V8.322h1.746v2.674zm-2.19.888h2.635a.444.444 0 00.444-.444V7.877a.444.444 0 00-.444-.444h-2.635a.444.444 0 00-.444.444v3.563c0 .246.198.444.444.444z"/><path d="M29.342 13.049h-3.755v-1.165h3.755v1.165zm-4.2.888h4.644a.444.444 0 00.444-.444V11.44a.444.444 0 00-.444-.444h-4.644a.444.444 0 00-.444.444v2.053c0 .246.199.444.444.444z"/><path d="M27.464 17.96a.443.443 0 00.42-.306l1.315-4.026a.443.443 0 10-.842-.275l-.893 2.735-.894-2.735a.442.442 0 10-.842.275l1.314 4.026c.06.183.23.306.422.306"/><path d="M27.464 23.39a.443.443 0 00.443-.444v-5.429a.444.444 0 10-.887 0v5.43c0 .245.198.443.444.443M26.15 5.322a.444.444 0 00.444-.444v-1.2h1.763v1.2a.444.444 0 10.888 0V3.234a.444.444 0 00-.444-.444H26.15a.444.444 0 00-.444.444v1.644c0 .246.198.444.444.444M12.092 8.323a.443.443 0 00.444-.444v-3a.443.443 0 10-.887 0v3c0 .246.198.444.443.444M6.856 10.533h3a.443.443 0 100-.887h-3a.443.443 0 100 .887M30.399 28.713h-5.87v-2.747h1.423c.201.647.8 1.109 1.512 1.109s1.31-.462 1.513-1.11h1.422v2.748zm-6.314.889h6.758a.444.444 0 00.445-.445v-3.635a.444.444 0 00-.445-.445h-2.238c-.24 0-.437.191-.444.43a.696.696 0 01-1.393 0 .445.445 0 00-.444-.43h-2.239c-.245 0-.444.2-.444.445v3.635c0 .246.199.445.444.445zM23.042 39.928H31.9a.444.444 0 00.444-.445v-8.605a.444.444 0 10-.888 0v8.161h-7.969v-8.161a.444.444 0 10-.888 0v8.605c0 .246.199.445.444.445M29.238 22.608c.121 0 .242-.05.33-.148l1.855-2.072a.445.445 0 00-.661-.593l-1.855 2.073a.445.445 0 00.33.74M30.842 23.462c.054 0 .108-.009.16-.03l4.898-1.887a.442.442 0 10-.32-.826l-4.898 1.887a.443.443 0 00.16.856M25.69 22.608a.444.444 0 00.33-.741l-1.855-2.072a.444.444 0 10-.66.594l1.855 2.072a.442.442 0 00.33.147M24.085 23.462a.443.443 0 00.16-.856l-4.897-1.887a.442.442 0 10-.32.826l4.897 1.888a.44.44 0 00.16.03"/><path d="M14.62 5.322h.003c3.051-.026 4.442-1.086 6.052-2.314.754-.575 1.533-1.169 2.572-1.727.775-.416 1.468-.499 2.059-.246 1.225.523 1.731 2.3 1.736 2.318a.445.445 0 00.856-.236c-.024-.09-.62-2.203-2.24-2.898-.853-.366-1.804-.272-2.83.28-1.102.59-1.947 1.234-2.692 1.802-1.545 1.18-2.765 2.109-5.52 2.133a.444.444 0 00.003.888"/></g></svg><svg viewBox="0 0 30 40" id="qualified-employees" xmlns="http://www.w3.org/2000/svg"><mask id="ia" style="mask-type:alpha" maskUnits="userSpaceOnUse" x="0" y="0" width="30" height="40"><path fill-rule="evenodd" clip-rule="evenodd" d="M0 40V0h29.597v40H0z"/></mask><g mask="url(#ia)" fill-rule="evenodd" clip-rule="evenodd"><path d="M17.718 31.139a.438.438 0 01-.273-.096l-2.096-1.662a.441.441 0 01.548-.692l1.664 1.32 2.012-4.17-.809-1.463-3.633 4.154a.455.455 0 01-.665 0l-3.634-4.155-.81 1.465 2.014 4.169 1.664-1.32a.442.442 0 01.548.692l-2.096 1.662a.441.441 0 01-.671-.153l-2.352-4.872a.441.441 0 01.011-.405l1.224-2.215a.44.44 0 01.718-.077l3.716 4.248 3.716-4.248a.44.44 0 01.718.077l1.224 2.215a.44.44 0 01.01.405l-2.35 4.872a.44.44 0 01-.398.249M9.885 38.31H1.848a.442.442 0 010-.885h8.037a.442.442 0 010 .886z"/><path d="M15.803 31.767h-2.009a.442.442 0 01-.398-.252l-.698-1.476a.44.44 0 11.796-.38l.579 1.223h1.452l.579-1.223a.44.44 0 11.796.38l-.699 1.476a.441.441 0 01-.398.252"/><path d="M13.097 40a.441.441 0 01-.44-.479l.7-8.236a.435.435 0 01.478-.402c.243.02.423.233.403.477l-.7 8.236a.442.442 0 01-.44.404zM16.503 40a.44.44 0 01-.437-.404l-.696-8.236a.44.44 0 01.4-.477.435.435 0 01.474.402l.696 8.236a.44.44 0 01-.437.479M7.96 38.31a.44.44 0 01-.44-.44v-5.648H6.076v5.647a.44.44 0 11-.88 0v-6.088a.44.44 0 01.44-.441h2.325a.44.44 0 01.44.441v6.088a.44.44 0 01-.44.442"/><path d="M6.545 33.86h-.909a.442.442 0 010-.886h.91a.442.442 0 010 .886zM6.545 36.086h-.909a.442.442 0 010-.886h.91a.442.442 0 010 .886zM3.968 38.31a.442.442 0 01-.443-.441v-3.897a.442.442 0 01.885 0v3.897a.442.442 0 01-.442.442zM5.602 12.543h18.394a2.29 2.29 0 00-2.244-1.845H7.846a2.29 2.29 0 00-2.244 1.845zm18.878.882H5.118a.441.441 0 01-.441-.441 3.173 3.173 0 013.169-3.169h13.906a3.173 3.173 0 013.17 3.169.441.441 0 01-.442.441"/><path d="M23.31 10.696a.44.44 0 01-.441-.441 8.054 8.054 0 00-1.917-5.216 8.055 8.055 0 00-4.877-2.75.441.441 0 01.138-.87 8.934 8.934 0 015.412 3.048 8.937 8.937 0 012.127 5.788.441.441 0 01-.442.441M6.288 10.696a.44.44 0 01-.442-.441 8.94 8.94 0 012.126-5.789 8.935 8.935 0 015.411-3.048.44.44 0 11.138.871 8.057 8.057 0 00-4.876 2.749 8.057 8.057 0 00-1.916 5.217.44.44 0 01-.441.441z"/><path d="M16.14 8.357a.44.44 0 01-.44-.44v-6.13a.903.903 0 00-.902-.904.903.903 0 00-.901.903v6.13a.44.44 0 11-.88 0v-6.13c0-.984.799-1.785 1.781-1.785.983 0 1.782.8 1.782 1.785v6.13a.44.44 0 01-.44.441zM10.864 6.516a.442.442 0 01-.442-.442V2.879a.442.442 0 01.885 0v3.195a.442.442 0 01-.443.442zM18.738 6.516a.44.44 0 01-.438-.442V2.879a.44.44 0 01.438-.442.44.44 0 01.438.442v3.195a.44.44 0 01-.438.442zM7.976 13.425v2.19a6.83 6.83 0 006.823 6.823 6.83 6.83 0 006.823-6.822v-2.19H7.976zm6.823 9.896c-4.248 0-7.705-3.457-7.705-7.705v-2.632c0-.244.197-.441.441-.441h14.528c.244 0 .441.197.441.44v2.633c0 4.248-3.456 7.705-7.705 7.705z"/><path d="M7.578 16.857a.443.443 0 01-.21-.83c1.07-.579 1.869-2.487 2.086-3.173a.442.442 0 01.843.265c-.036.115-.907 2.82-2.509 3.685a.446.446 0 01-.21.053M22.02 16.857a.444.444 0 01-.21-.053c-1.596-.865-2.464-3.57-2.5-3.685a.442.442 0 01.84-.266c.219.687 1.016 2.597 2.08 3.174a.442.442 0 01-.21.83zM10.809 24.055a.442.442 0 01-.443-.442V21.84a.442.442 0 01.885 0v1.774a.442.442 0 01-.442.442zM18.788 24.055a.442.442 0 01-.443-.442V21.84a.442.442 0 01.886 0v1.774a.442.442 0 01-.443.442zM.441 40A.441.441 0 010 39.559v-7.577a4.628 4.628 0 013.083-4.359l6.29-2.218a.441.441 0 11.293.833l-6.29 2.218a3.744 3.744 0 00-2.494 3.526v7.577a.441.441 0 01-.44.441zM29.156 40a.44.44 0 01-.441-.441v-7.572a3.742 3.742 0 00-2.493-3.523l-6.291-2.217a.44.44 0 11.293-.833l6.29 2.217a4.625 4.625 0 013.083 4.356v7.572a.44.44 0 01-.441.441"/></g></svg><svg fill="none" viewBox="0 0 24 24" id="send" xmlns="http://www.w3.org/2000/svg"><path clip-rule="evenodd" d="M7.398 6.318l8.49-2.83c3.811-1.271 5.881.81 4.621 4.62l-2.83 8.493c-1.9 5.712-5.02 5.712-6.92 0l-.841-2.52-2.52-.84c-5.71-1.902-5.71-5.012 0-6.923z"/><path d="M10.11 13.65l3.58-3.59"/></svg><svg fill="none" viewBox="0 0 24 24" id="whatsapp" xmlns="http://www.w3.org/2000/svg"><path clip-rule="evenodd" d="M6.9 20.6c1.5.9 3.3 1.4 5.1 1.4 5.5 0 10-4.5 10-10S17.5 2 12 2 2 6.5 2 12c0 1.8.5 3.5 1.3 5L2 22l4.9-1.4z"/><path clip-rule="evenodd" d="M16.5 14.848c0 .162-.036.329-.113.491a1.856 1.856 0 01-.306.459c-.221.243-.464.418-.74.531-.27.113-.563.171-.878.171-.46 0-.951-.108-1.47-.328a7.922 7.922 0 01-1.55-.892 12.95 12.95 0 01-1.478-1.26 12.792 12.792 0 01-1.257-1.471 8.02 8.02 0 01-.884-1.534C7.608 10.5 7.5 10.01 7.5 9.543c0-.306.054-.598.162-.868.108-.275.28-.527.519-.752.288-.284.603-.423.937-.423.126 0 .252.027.365.081.117.054.22.135.302.252l1.046 1.472c.08.112.14.216.18.315.04.094.063.189.063.274a.61.61 0 01-.095.32 1.53 1.53 0 01-.252.319l-.343.356a.24.24 0 00-.072.18c0 .035.005.067.014.103.013.036.027.063.036.09.08.149.22.342.419.576.203.234.419.473.653.711.244.239.478.459.717.662.234.197.428.332.581.413l.082.037a.311.311 0 00.112.018.248.248 0 00.185-.077l.342-.338c.113-.112.221-.197.325-.252a.6.6 0 01.32-.094.72.72 0 01.275.059c.099.04.203.098.315.175l1.492 1.058a.683.683 0 01.248.287.921.921 0 01.072.351z"/></svg></svg>