<svg id="circom-logo" width="1000" height="270" version="1.1" viewBox="0 0 270 54" xmlns="http://www.w3.org/2000/svg">
 <defs>
  <linearGradient id="a" x1="230" x2="295" y1="200" y2="230" gradientTransform="translate(1.7777e-6)" gradientUnits="userSpaceOnUse">
   <stop stop-color="#bfe4ff" offset=".33333"/>
   <stop stop-color="#0f23bd" offset=".66667"/>
   <stop stop-color="#002b8b" offset="1"/>
  </linearGradient>
  <linearGradient id="b" x1="131.56" x2="131.56" y1="200" y2="212.85" gradientTransform="translate(1.7777e-6)" gradientUnits="userSpaceOnUse">
   <stop stop-color="#1d0772" offset="0"/>
   <stop stop-color="#290aa3" offset=".5"/>
   <stop stop-color="#1d0772" offset="1"/>
  </linearGradient>
 </defs>
 <g transform="matrix(1.125 0 0 1.1276 -90.002 -198.52)" stroke-miterlimit="10">
  <path d="m236.42 223.18c-1.007-1.007-2.014 0-6.042 3.02-6.041 6.042-16.11 8.056-24.167 4.029-8.055-3.021-16.11-14.097-13.09-16.111 4.028-2.014 8.056-2.014 13.09 0 5.035 3.02 9.063 4.027 11.076 1.007 1.007-1.007 1.007-1.007-1.007-4.028-2.013-2.014-3.02-2.014-10.069-2.014-12.083 1.007-14.097 0-9.062-7.049 6.042-10.069 18.125-11.076 29.201-2.014 2.014 2.014 4.028 3.021 4.028 3.021 1.007 0 1.007-8.055 0-18.125 0-13.09 0-18.125 1.007-17.118 2.014 2.014 17.118 21.146 23.16 30.208 0.548 0.822 1.114 1.662 1.689 2.506 0.575-0.844 1.141-1.684 1.69-2.506 6.04-9.062 21.145-28.194 23.16-30.208 1.006-1.007 1.006 4.028 1.006 17.118-1.007 10.07-1.007 18.125 0 18.125 0 0 2.014-1.007 4.028-3.02 11.076-9.063 23.16-8.056 29.2 2.013 5.036 7.049 3.022 8.056-9.062 7.049-7.048 0-8.055 0-10.069 2.014-2.014 3.02-2.014 3.02-1.007 4.028 2.014 3.02 6.042 2.013 11.076-1.007 5.035-2.014 9.063-2.014 13.09 0 3.021 2.014-5.034 13.09-13.09 16.11-8.055 4.028-18.125 2.015-24.167-4.027-4.027-3.021-5.034-4.028-6.041-3.021-3.444 2.583-12.775 6.637-19.814 8.388-7.04-1.75-16.371-5.805-19.814-8.388zm7.049-12.083c2.013-2.014 1.006-4.028-1.007-6.042-4.028-4.027-9.063 0-6.042 4.028 2.014 3.021 5.035 4.028 7.049 2.014zm32.58-2.014c3.02-4.028-2.014-8.055-6.042-4.028-2.014 2.014-3.02 4.028-1.007 6.042 2.014 2.014 5.035 1.007 7.049-2.014z" fill="url(#a)"/>
  <path d="m96.445 212.85h-10.131c-0.196 0-0.356-0.033-0.48-0.098a1.345 1.345 0 0 1-0.37-0.273l-0.175-0.218-4.853-4.81c-0.29-0.297-0.436-0.715-0.436-1.253v-14.275c0-0.437 0.16-0.851 0.48-1.244l2.966-2.977c0.298-0.363 0.643-0.545 1.036-0.545h11.593c0.29 0 0.436 0.145 0.436 0.436v3.893c0 0.291-0.145 0.437-0.436 0.437h-9.837l-1.101 1.101v12.116l2.933 2.934h8.376c0.29 0 0.436 0.145 0.436 0.436v3.893c0 0.298-0.145 0.447-0.436 0.447zm7.405-21.582v21.135c0 0.298-0.146 0.447-0.436 0.447h-4.254c-0.298 0-0.447-0.149-0.447-0.447v-21.135c0-0.298 0.15-0.447 0.447-0.447h4.254c0.29 0 0.436 0.149 0.436 0.447zm14.319 21.135v-2.53l-2.683-2.716h-4.297v5.246c0 0.298-0.145 0.447-0.436 0.447h-4.253c-0.298 0-0.447-0.149-0.447-0.447v-21.135c0-0.298 0.149-0.447 0.447-0.447h12.323c0.392 0 0.738 0.185 1.036 0.556l2.595 2.606c0.32 0.32 0.48 0.735 0.48 1.244v5.649c0 0.443-0.145 0.861-0.436 1.254l-2.53 2.53 3.01 3.01c0.218 0.32 0.327 0.6 0.327 0.84v3.893c0 0.298-0.15 0.447-0.447 0.447h-4.253c-0.291 0-0.436-0.15-0.436-0.447zm-6.98-16.805v6.783h4.406l2.203-2.192v-3.49l-1.101-1.101zm28.551 17.252h-7.917c-0.196 0-0.356-0.033-0.48-0.098a1.345 1.345 0 0 1-0.37-0.273l-0.186-0.218-4.842-4.81c-0.29-0.297-0.436-0.715-0.436-1.253v-10.6c0-0.444 0.16-0.862 0.48-1.254l2.966-2.967c0.29-0.37 0.632-0.556 1.025-0.556h9.76c0.298 0 0.447 0.15 0.447 0.447v3.883c0 0.298-0.149 0.447-0.447 0.447h-7.993l-1.102 1.101v8.44l2.934 2.935h6.161c0.298 0 0.448 0.145 0.448 0.436v3.893c0 0.298-0.15 0.447-0.448 0.447zm15.78 0h-9.019c-0.196 0-0.356-0.033-0.48-0.098a1.345 1.345 0 0 1-0.37-0.273l-0.186-0.218-3.01-2.977c-0.29-0.291-0.436-0.705-0.436-1.243v-12.443c0-0.444 0.16-0.862 0.48-1.254l2.967-2.967c0.298-0.37 0.643-0.556 1.035-0.556h9.02c0.392 0 0.737 0.185 1.035 0.556l2.967 2.967c0.32 0.392 0.48 0.81 0.48 1.254v12.443c0 0.538-0.146 0.952-0.437 1.243l-3.01 2.977-0.185 0.218a1.344 1.344 0 0 1-0.37 0.273 1.024 1.024 0 0 1-0.48 0.098zm-0.654-16.151-1.101-1.101h-5.508l-1.101 1.101v10.273l1.101 1.101h5.508l1.101-1.101zm7.776-5.878h3.893c0.145 0 0.287 0.025 0.425 0.076 0.131 0.051 0.23 0.102 0.295 0.153 0.058 0.044 0.16 0.153 0.305 0.327 0.145 0.167 0.258 0.29 0.338 0.37l4.766 4.767 4.765-4.766c0.08-0.08 0.178-0.185 0.295-0.316 0.123-0.138 0.21-0.226 0.262-0.262 0.05-0.036 0.123-0.091 0.218-0.164a0.894 0.894 0 0 1 0.272-0.141c0.087-0.03 0.193-0.044 0.317-0.044h3.893c0.29 0 0.436 0.149 0.436 0.447v21.135c0 0.298-0.145 0.447-0.436 0.447h-4.264c-0.291 0-0.436-0.149-0.436-0.447v-14.383l-4.7 4.7c-0.219 0.219-0.426 0.328-0.622 0.328-0.197 0-0.404-0.11-0.622-0.328l-4.7-4.7v14.384c0 0.298-0.146 0.447-0.437 0.447h-4.264c-0.29 0-0.436-0.149-0.436-0.447v-21.135c0-0.298 0.146-0.447 0.436-0.447z" fill="url(#b)"/>
 </g>
</svg>
