<svg width="27" height="40" viewBox="0 0 27 40" fill="" xmlns="http://www.w3.org/2000/svg">
<mask id="mask0_0_458" style="mask-type:alpha" maskUnits="userSpaceOnUse" x="0" y="0" width="27" height="40">
<path fill-rule="evenodd" clip-rule="evenodd" d="M0 40V-1e-05H26.9068V40H0Z" fill=""/>
</mask>
<g mask="url(#mask0_0_458)">
<path fill-rule="evenodd" clip-rule="evenodd" d="M5.68695 24.8164H9.84805C9.93402 24.8164 10.018 24.8437 10.0876 24.8943L13.4542 27.3401L16.8208 24.8943C16.8905 24.8437 16.9744 24.8164 17.0604 24.8164H21.2215L22.5074 20.8591C22.5343 20.7772 22.586 20.7059 22.6553 20.6553L26.0219 18.2091L24.736 14.2517C24.7095 14.1699 24.7095 14.0814 24.736 14L26.0219 10.0422L22.6553 7.59636C22.586 7.54584 22.5343 7.47454 22.5074 7.39264L21.2215 3.43485H17.0604C16.974 3.43485 16.8905 3.40796 16.8208 3.35744L13.4542 0.911216L10.0876 3.35744C10.018 3.40796 9.93443 3.43485 9.84805 3.43485H5.68695L4.4011 7.39264C4.37462 7.47453 4.32287 7.54583 4.2532 7.59636L0.886593 10.0422L2.17244 14C2.19892 14.0814 2.19892 14.1699 2.17244 14.2517L0.886593 18.2091L4.2532 20.6553C4.32287 20.7059 4.37461 20.7772 4.4011 20.8591L5.68695 24.8164ZM13.4542 28.2511C13.3703 28.2511 13.286 28.2254 13.2147 28.1733L9.71604 25.6313H5.39075C5.21433 25.6313 5.05788 25.5176 5.00328 25.3498L3.6669 21.2367L0.168293 18.6944C0.0252831 18.5905 -0.0341969 18.4067 0.0199831 18.2389L1.35676 14.1258L0.0199831 10.0128C-0.0342069 9.84456 0.0252831 9.66081 0.168293 9.55691L3.6669 7.01494L5.00328 2.90151C5.05788 2.73365 5.21433 2.61997 5.39075 2.61997H9.71604L13.2147 0.0779963C13.3577 -0.0259037 13.5508 -0.0259037 13.6938 0.0779963L17.1924 2.61997H21.5173C21.6941 2.61997 21.8506 2.73364 21.9052 2.90151L23.2415 7.01494L26.7406 9.55691C26.8832 9.66081 26.9431 9.84456 26.8885 10.0128L25.5517 14.1258L26.8885 18.2389C26.9431 18.4067 26.8832 18.5905 26.7406 18.6944L23.2415 21.2367L21.9052 25.3498C21.8506 25.5176 21.6941 25.6313 21.5173 25.6313H17.1924L13.6938 28.1733C13.6225 28.2254 13.5382 28.2511 13.4542 28.2511Z" fill=""/>
<path fill-rule="evenodd" clip-rule="evenodd" d="M13.4542 5.79184C8.85876 5.79184 5.12017 9.53043 5.12017 14.1263C5.12017 18.7217 8.85876 22.4603 13.4542 22.4603C18.0496 22.4603 21.7886 18.7217 21.7886 14.1263C21.7886 9.53043 18.0496 5.79184 13.4542 5.79184ZM13.4542 23.2751C8.40936 23.2751 4.3053 19.1707 4.3053 14.1263C4.3053 9.08145 8.40936 4.97699 13.4542 4.97699C18.499 4.97699 22.6035 9.08146 22.6035 14.1263C22.6035 19.1707 18.499 23.2751 13.4542 23.2751Z" fill=""/>
<path fill-rule="evenodd" clip-rule="evenodd" d="M13.4542 16.599C13.523 16.599 13.5919 16.6165 13.6538 16.6511L16.1436 18.0506L15.5822 15.25C15.5541 15.1106 15.6009 14.9668 15.7056 14.8702L17.8059 12.9349L14.969 12.6033C14.8276 12.587 14.7054 12.4982 14.6459 12.369L13.4542 9.77326L12.2624 12.369C12.2029 12.4982 12.0807 12.587 11.9393 12.6033L9.1024 12.9349L11.2031 14.8702C11.3074 14.9668 11.3543 15.1106 11.3262 15.25L10.7647 18.0506L13.2545 16.6511C13.3165 16.6165 13.3853 16.599 13.4542 16.599M16.7177 19.2477C16.6488 19.2477 16.58 19.2306 16.5181 19.1955L13.4542 17.4737L10.3903 19.1955C10.2514 19.2729 10.0798 19.2636 9.9511 19.1703C9.82235 19.0766 9.76001 18.9164 9.79139 18.7604L10.4824 15.3143L7.89765 12.9325C7.78072 12.8249 7.73712 12.6587 7.78642 12.5071C7.83572 12.3556 7.96854 12.2468 8.12662 12.2284L11.6175 11.8206L13.0838 8.62675C13.1502 8.48211 13.2949 8.38962 13.4542 8.38962C13.6135 8.38962 13.7581 8.48211 13.8245 8.62675L15.2909 11.8206L18.7818 12.2284C18.9398 12.2468 19.0727 12.3556 19.122 12.5071C19.1713 12.6587 19.1277 12.8249 19.0107 12.9325L16.426 15.3143L17.117 18.7604C17.1484 18.9164 17.086 19.0766 16.9573 19.1703C16.886 19.2216 16.8021 19.2477 16.7177 19.2477" fill=""/>
<path fill-rule="evenodd" clip-rule="evenodd" d="M18.7363 40.0004C18.6425 40.0004 18.5496 39.9678 18.4746 39.9054L13.4534 35.7051L8.43227 39.9054C8.31039 40.0069 8.14122 40.0289 7.99815 39.9621C7.85466 39.8953 7.76295 39.751 7.76295 39.5929V25.2212C7.76295 24.9963 7.94557 24.8137 8.17057 24.8137C8.39558 24.8137 8.5782 24.9963 8.5782 25.2212V38.7204L13.1917 34.8616C13.3434 34.7348 13.5639 34.7348 13.7151 34.8616L18.3287 38.7204V25.2212C18.3287 24.9963 18.5113 24.8137 18.7363 24.8137C18.9613 24.8137 19.1439 24.9963 19.1439 25.2212V39.5929C19.1439 39.751 19.0522 39.8953 18.9087 39.9621C18.8537 39.9878 18.795 40.0004 18.7363 40.0004Z" fill=""/>
<path fill-rule="evenodd" clip-rule="evenodd" d="M11.3153 37.3697C11.0918 37.3697 10.9104 37.1872 10.9104 36.9623V26.5335C10.9104 26.3082 11.0918 26.1262 11.3153 26.1262C11.5384 26.1262 11.7202 26.3082 11.7202 26.5335V36.9623C11.7202 37.1872 11.5384 37.3697 11.3153 37.3697Z" fill=""/>
<path fill-rule="evenodd" clip-rule="evenodd" d="M15.5916 37.3697C15.3681 37.3697 15.1867 37.1872 15.1867 36.9623V26.5335C15.1867 26.3082 15.3681 26.1262 15.5916 26.1262C15.815 26.1262 15.9964 26.3082 15.9964 26.5335V36.9623C15.9964 37.1872 15.815 37.3697 15.5916 37.3697Z" fill=""/>
</g>
</svg>
