<svg width="21" height="40" viewBox="0 0 21 40" fill="" xmlns="http://www.w3.org/2000/svg">
<mask id="mask0_0_504" style="mask-type:alpha" maskUnits="userSpaceOnUse" x="0" y="0" width="21" height="40">
<path fill-rule="evenodd" clip-rule="evenodd" d="M0 40V-2e-05H20.5192V40H0Z" fill=""/>
</mask>
<g mask="url(#mask0_0_504)">
<path fill-rule="evenodd" clip-rule="evenodd" d="M3.12439 17.9524H17.3952L15.8679 1.99781C15.8086 1.37923 15.2954 0.91255 14.674 0.91255H5.84553C5.22421 0.91255 4.711 1.37923 4.6517 1.99781L3.12439 17.9524ZM17.897 18.8647H2.62259C2.49395 18.8647 2.37169 18.8104 2.28501 18.7156C2.19834 18.6202 2.15591 18.4934 2.16823 18.3648L3.74343 1.91066C3.84744 0.82175 4.7516 0.000160217 5.84552 0.000160217H14.674C15.768 0.000160217 16.6717 0.82175 16.7761 1.91066L18.3509 18.3648C18.3632 18.4934 18.3212 18.6202 18.2345 18.7156C18.1479 18.8104 18.0256 18.8647 17.897 18.8647" fill=""/>
<path fill-rule="evenodd" clip-rule="evenodd" d="M2.04781 18.8647C1.42147 18.8647 0.91237 19.3738 0.91237 20.0002C0.91237 20.6261 1.42147 21.1356 2.04781 21.1356H18.4718C19.0981 21.1356 19.6072 20.626 19.6072 20.0002C19.6072 19.3738 19.0981 18.8647 18.4718 18.8647H2.04781ZM18.4718 22.048H2.04781C0.91876 22.048 0 21.1292 0 20.0002C0 18.8711 0.91875 17.9524 2.04781 17.9524H18.4718C19.6013 17.9524 20.5196 18.8711 20.5196 20.0002C20.5196 21.1292 19.6013 22.048 18.4718 22.048Z" fill=""/>
<path fill-rule="evenodd" clip-rule="evenodd" d="M17.6325 16.0539H2.88754C2.63559 16.0539 2.4311 15.8516 2.4311 15.6015C2.4311 15.3513 2.63559 15.1491 2.88754 15.1491H17.6325C17.8845 15.1491 18.0889 15.3513 18.0889 15.6015C18.0889 15.8516 17.8845 16.0539 17.6325 16.0539Z" fill=""/>
<path fill-rule="evenodd" clip-rule="evenodd" d="M1.66563 40.0003H0.456216C0.328019 40.0003 0.205762 39.9465 0.119537 39.852C0.0328619 39.7576 -0.00957055 39.6312 0.00183011 39.5039L1.59309 21.5468C1.61544 21.2959 1.83261 21.1092 2.08808 21.132C2.33899 21.1544 2.52421 21.3762 2.50186 21.6267L0.954405 39.0877H1.2888L3.95079 25.2306C4.22223 23.8188 5.09952 22.6123 6.35775 21.9187L7.6844 21.1873C7.9052 21.0654 8.18258 21.1457 8.30439 21.3666C8.42574 21.587 8.34545 21.8649 8.1251 21.9863L6.79798 22.7182C5.77789 23.2799 5.06712 24.2587 4.84677 25.4026L2.11361 39.6298C2.07255 39.8447 1.88414 40.0003 1.66562 40.0003" fill=""/>
<path fill-rule="evenodd" clip-rule="evenodd" d="M20.0629 40.0003H18.8535C18.6345 40.0003 18.4465 39.8447 18.4055 39.6298L15.6718 25.4027C15.4519 24.2588 14.7407 23.28 13.721 22.7183L12.3939 21.9864C12.1735 21.865 12.0927 21.5871 12.2146 21.3667C12.3364 21.1459 12.6133 21.0656 12.8346 21.1874L14.1612 21.9189C15.4195 22.6124 16.2968 23.8189 16.5678 25.2307L19.2303 39.0877H19.5643L18.0168 21.6268C17.9944 21.3763 18.1801 21.1545 18.431 21.1322C18.6865 21.1103 18.9037 21.296 18.9256 21.547L20.5173 39.5039C20.5287 39.6312 20.4858 39.7576 20.3996 39.852C20.3129 39.9465 20.1911 40.0003 20.0629 40.0003" fill=""/>
</g>
</svg>
