<svg xmlns="http://www.w3.org/2000/svg" width="256" height="256" xml:space="preserve"><g><g style="stroke:none;stroke-width:0;stroke-dasharray:none;stroke-linecap:butt;stroke-linejoin:miter;stroke-miterlimit:10;fill-rule:nonzero;opacity:1"><path d="M69.315 90.026c-13.634.002-30.855-10.945-44.626-24.715C6.015 46.638-7.468 21.613 4.506 7.8c.761-.878 1.734-1.552 2.891-2.006 1.428-.56 4.015-1.651 7.687-3.244l.008-.003A977.43 977.43 0 0 0 19.691.538a6.383 6.383 0 0 1 8.045 2.587l10.407 17.539a6.41 6.41 0 0 1 .135 6.271L32.043 38.55 51.45 57.957l11.613-6.235a6.412 6.412 0 0 1 6.272.135l16.293 9.668 2.157 1.395a6.385 6.385 0 0 1 1.676 7.39 798.15 798.15 0 0 0-1.676 3.831l.756-1.735-1.127 2.589c-1.548 3.571-2.657 6.2-3.21 7.61-.453 1.156-1.128 2.129-2.004 2.89-3.626 3.143-8.029 4.531-12.885 4.531zM17.98 8.925c-3.807 1.651-6.508 2.791-8.028 3.387a.648.648 0 0 0-.171.088c-8.562 9.878 3.505 31.608 19.858 47.961 16.353 16.352 38.079 28.418 47.974 19.846h-.001c-.002 0 .033-.049.076-.157.602-1.534 1.741-4.235 3.388-8.031l1.745-4.021-16.755-9.942-11.711 6.287a6.342 6.342 0 0 1-7.527-1.11l-20.06-20.06a6.341 6.341 0 0 1-1.11-7.527l6.287-11.711-9.948-16.764c-1.154.507-2.559 1.121-4.017 1.754z" style="stroke:none;stroke-width:1;stroke-dasharray:none;stroke-linecap:butt;stroke-linejoin:miter;stroke-miterlimit:10;fill-rule:nonzero;opacity:1" transform="translate(1.964 1.964) scale(2.8008)"/></g></g></svg>