<svg width="37" height="40" viewBox="0 0 37 40" fill="" xmlns="http://www.w3.org/2000/svg">
<mask id="mask0_0_420" style="mask-type:alpha" maskUnits="userSpaceOnUse" x="0" y="0" width="37" height="40">
<path fill-rule="evenodd" clip-rule="evenodd" d="M-6.10352e-05 39.9999V0H36.1842V39.9999H-6.10352e-05Z" fill=""/>
</mask>
<g mask="url(#mask0_0_420)">
<path fill-rule="evenodd" clip-rule="evenodd" d="M32.6388 29.6016V29.8033C32.6388 30.0565 32.4327 30.2631 32.1795 30.2631H22.7487C22.4955 30.2631 22.2893 30.0565 22.2893 29.8033V29.6016H32.6388ZM22.7487 31.1515H32.1795C32.9227 31.1515 33.5273 30.5469 33.5273 29.8033V29.1573C33.5273 28.9117 33.3287 28.7131 33.0831 28.7131H21.8451C21.5994 28.7131 21.4009 28.9117 21.4009 29.1573V29.8033C21.4009 30.5469 22.0055 31.1515 22.7487 31.1515" fill=""/>
<path fill-rule="evenodd" clip-rule="evenodd" d="M15.8065 39.1114H0.888002V38.4962C0.888002 37.8871 1.38422 37.3913 1.99327 37.3913H14.7021C15.3116 37.3913 15.8065 37.8871 15.8065 38.4962V39.1114ZM0.443752 39.9999H16.2508C16.4964 39.9999 16.695 39.8014 16.695 39.5557V38.4962C16.695 37.3971 15.8012 36.5029 14.7021 36.5029H1.99326C0.893772 36.5029 -0.000488281 37.3971 -0.000488281 38.4962V39.5557C-0.000488281 39.8014 0.198522 39.9999 0.443742 39.9999" fill=""/>
<path fill-rule="evenodd" clip-rule="evenodd" d="M14.343 37.26C14.382 37.26 14.421 37.2551 14.46 37.2444C14.6964 37.1795 14.8356 36.9355 14.7713 36.6986L12.5207 28.4195C12.4559 28.1822 12.2103 28.0426 11.9762 28.1075C11.7399 28.1724 11.6002 28.4169 11.665 28.6533L13.9156 36.9324C13.9692 37.1302 14.1483 37.26 14.343 37.26" fill=""/>
<path fill-rule="evenodd" clip-rule="evenodd" d="M2.36898 37.2599C2.56363 37.2599 2.74276 37.1302 2.79641 36.9324L5.04703 28.6534C5.11177 28.417 4.9721 28.1726 4.73577 28.1077C4.5021 28.0432 4.25603 28.1823 4.19129 28.4197L1.94067 36.6986C1.87638 36.9355 2.01561 37.1795 2.25193 37.2444C2.29094 37.2551 2.32997 37.2599 2.36898 37.2599" fill=""/>
<path fill-rule="evenodd" clip-rule="evenodd" d="M8.35525 19.1708C11.2068 19.1708 13.5267 21.4911 13.5267 24.3427C13.5267 27.1942 11.2068 29.5136 8.35525 29.5136C5.50367 29.5136 3.18384 27.1942 3.18384 24.3427C3.18384 21.4911 5.50367 19.1708 8.35525 19.1708ZM8.35525 30.4021C11.6964 30.4021 14.4151 27.6838 14.4151 24.3427C14.4151 21.0006 11.6964 18.2823 8.35525 18.2823C5.01411 18.2823 2.29535 21.0006 2.29535 24.3427C2.29535 27.6838 5.01411 30.4021 8.35525 30.4021Z" fill=""/>
<path fill-rule="evenodd" clip-rule="evenodd" d="M8.35527 22.1716C9.55206 22.1716 10.5258 23.145 10.5258 24.3422C10.5258 25.539 9.55206 26.5128 8.35527 26.5128C7.15849 26.5128 6.18426 25.539 6.18426 24.3422C6.18426 23.145 7.15848 22.1716 8.35527 22.1716ZM8.35527 27.4012C10.0421 27.4012 11.4143 26.029 11.4143 24.3422C11.4143 22.6554 10.0421 21.2832 8.35527 21.2832C6.66849 21.2832 5.29578 22.6554 5.29578 24.3422C5.29578 26.029 6.66849 27.4012 8.35527 27.4012Z" fill=""/>
<path fill-rule="evenodd" clip-rule="evenodd" d="M9.84281 19.3776C10.0498 19.3776 10.235 19.2323 10.2776 19.0213C10.2963 18.9289 10.3038 18.8307 10.3038 18.7321V8.32415H29.5919C30.6637 8.32415 31.536 7.45156 31.536 6.3795C31.536 5.30698 30.6637 4.4344 29.5919 4.4344H8.3593C7.28755 4.4344 6.41521 5.30698 6.41521 6.3795V18.7321C6.41521 18.8214 6.42099 18.9049 6.43208 18.9884C6.46495 19.2315 6.68659 19.4003 6.93176 19.3692C7.17516 19.3363 7.34573 19.1124 7.31285 18.8694C7.30663 18.8249 7.30352 18.7796 7.30352 18.7321V6.3795C7.30352 5.79704 7.77744 5.32298 8.35929 5.32298H29.5919C30.1738 5.32298 30.6477 5.79704 30.6477 6.3795C30.6477 6.96196 30.1738 7.43557 29.5919 7.43557H9.85967C9.61404 7.43557 9.41551 7.63417 9.41551 7.87986V18.7321C9.41551 18.7707 9.41418 18.8094 9.40707 18.8454C9.35821 19.0857 9.51367 19.3199 9.75441 19.3687C9.78372 19.3745 9.81393 19.3776 9.8428 19.3776" fill=""/>
<path fill-rule="evenodd" clip-rule="evenodd" d="M28.3372 10.9959H26.5914V8.32152H28.3372V10.9959ZM26.1471 11.8843H28.7815C29.0267 11.8843 29.2257 11.6858 29.2257 11.4401V7.8773C29.2257 7.63208 29.0267 7.43306 28.7815 7.43306H26.1471C25.9015 7.43306 25.7029 7.63208 25.7029 7.8773V11.4401C25.7029 11.6858 25.9015 11.8843 26.1471 11.8843Z" fill=""/>
<path fill-rule="evenodd" clip-rule="evenodd" d="M29.3417 13.0487H25.5865V11.8843H29.3417V13.0487ZM25.1422 13.9372H29.7859C30.0316 13.9372 30.2301 13.7386 30.2301 13.4929V11.4401C30.2301 11.1944 30.0316 10.9959 29.7859 10.9959H25.1422C24.8966 10.9959 24.698 11.1944 24.698 11.4401V13.4929C24.698 13.7386 24.8966 13.9372 25.1422 13.9372Z" fill=""/>
<path fill-rule="evenodd" clip-rule="evenodd" d="M27.4636 17.9602C27.6556 17.9602 27.8254 17.8368 27.8848 17.6544L29.1993 13.6284C29.2756 13.3958 29.1488 13.1445 28.9156 13.0686C28.6833 12.9927 28.4328 13.1201 28.357 13.3527L27.4636 16.0876L26.5703 13.3527C26.4945 13.1196 26.244 12.9918 26.0117 13.0686C25.7785 13.1445 25.6517 13.3958 25.728 13.6284L27.0425 17.6544C27.1019 17.8368 27.2717 17.9602 27.4636 17.9602" fill=""/>
<path fill-rule="evenodd" clip-rule="evenodd" d="M27.4637 23.3902C27.7089 23.3902 27.9071 23.1917 27.9071 22.9461V17.5174C27.9071 17.2723 27.7089 17.0733 27.4637 17.0733C27.2184 17.0733 27.0202 17.2723 27.0202 17.5174V22.9461C27.0202 23.1917 27.2184 23.3902 27.4637 23.3902" fill=""/>
<path fill-rule="evenodd" clip-rule="evenodd" d="M26.15 5.32224C26.3956 5.32224 26.5942 5.12356 26.5942 4.87777V3.6786H28.3568V4.87777C28.3568 5.12357 28.5554 5.32224 28.801 5.32224C29.0467 5.32224 29.2452 5.12356 29.2452 4.87777V3.23413C29.2452 2.98833 29.0467 2.78966 28.801 2.78966H26.15C25.9044 2.78966 25.7058 2.98834 25.7058 3.23413V4.87777C25.7058 5.12357 25.9044 5.32224 26.15 5.32224" fill=""/>
<path fill-rule="evenodd" clip-rule="evenodd" d="M12.0923 8.32306C12.3376 8.32306 12.5358 8.12451 12.5358 7.8789V4.87856C12.5358 4.63293 12.3376 4.4344 12.0923 4.4344C11.8471 4.4344 11.6489 4.63294 11.6489 4.87856V7.8789C11.6489 8.12452 11.8471 8.32306 12.0923 8.32306" fill=""/>
<path fill-rule="evenodd" clip-rule="evenodd" d="M6.85579 10.533H9.85533C10.1009 10.533 10.2994 10.3348 10.2994 10.0896C10.2994 9.84431 10.1009 9.64608 9.85533 9.64608H6.85579C6.61019 9.64608 6.41168 9.84432 6.41168 10.0896C6.41168 10.3348 6.61019 10.533 6.85579 10.533" fill=""/>
<path fill-rule="evenodd" clip-rule="evenodd" d="M30.399 28.7131H24.5297V25.9659H25.9517C26.1534 26.6127 26.7522 27.0747 27.4643 27.0747C28.1755 27.0747 28.7744 26.6127 28.9765 25.9659H30.399V28.7131ZM24.0854 29.6016H30.8432C31.0889 29.6016 31.2875 29.403 31.2875 29.1573V25.5217C31.2875 25.2765 31.0889 25.0774 30.8432 25.0774H28.6047C28.3648 25.0774 28.1684 25.268 28.1609 25.5075C28.1489 25.8882 27.8424 26.1863 27.4643 26.1863C27.0854 26.1863 26.7802 25.8886 26.7682 25.5079C26.7606 25.268 26.5638 25.0774 26.3239 25.0774H24.0854C23.8397 25.0774 23.6412 25.2765 23.6412 25.5217V29.1573C23.6412 29.403 23.8397 29.6016 24.0854 29.6016Z" fill=""/>
<path fill-rule="evenodd" clip-rule="evenodd" d="M23.0423 39.9277H31.8991C32.1447 39.9277 32.3433 39.7291 32.3433 39.4834V30.8779C32.3433 30.6321 32.1447 30.4335 31.8991 30.4335C31.654 30.4335 31.455 30.6321 31.455 30.8779V39.039H23.4864V30.8779C23.4864 30.6321 23.2879 30.4335 23.0423 30.4335C22.7967 30.4335 22.5982 30.6321 22.5982 30.8779V39.4834C22.5982 39.7291 22.7967 39.9277 23.0423 39.9277" fill=""/>
<path fill-rule="evenodd" clip-rule="evenodd" d="M29.2379 22.6085C29.3594 22.6085 29.4805 22.5587 29.5683 22.4605L31.4229 20.3883C31.5861 20.2056 31.5711 19.9248 31.3883 19.7609C31.206 19.5974 30.9261 19.6125 30.762 19.7955L28.9074 21.8678C28.7442 22.0504 28.7592 22.3312 28.942 22.4952C29.0263 22.5711 29.1323 22.6085 29.2379 22.6085" fill=""/>
<path fill-rule="evenodd" clip-rule="evenodd" d="M30.8422 23.4624C30.8956 23.4624 30.9498 23.453 31.0022 23.4327L35.8996 21.545C36.1289 21.4568 36.2423 21.2004 36.1538 20.9723C36.0654 20.7437 35.8071 20.6308 35.5791 20.7189L30.6822 22.6062C30.4529 22.6948 30.3391 22.9512 30.4275 23.1789C30.496 23.3547 30.6644 23.4623 30.8422 23.4623" fill=""/>
<path fill-rule="evenodd" clip-rule="evenodd" d="M25.6902 22.6084C25.7958 22.6084 25.9018 22.5711 25.9865 22.4947C26.1689 22.3312 26.184 22.0504 26.0203 21.8674L24.165 19.7953C24.0013 19.6127 23.7209 19.598 23.5385 19.7615C23.3562 19.925 23.3411 20.2058 23.5048 20.3888L25.3601 22.4609C25.4475 22.5587 25.5691 22.6084 25.6902 22.6084" fill=""/>
<path fill-rule="evenodd" clip-rule="evenodd" d="M24.0851 23.4624C24.2629 23.4624 24.4313 23.3547 24.4998 23.1789C24.5882 22.9512 24.4744 22.6948 24.2451 22.6062L19.3482 20.7189C19.1206 20.6308 18.8624 20.7437 18.7735 20.9723C18.685 21.2004 18.7984 21.4568 19.0277 21.545L23.925 23.4327C23.9775 23.4531 24.0317 23.4624 24.0851 23.4624" fill=""/>
<path fill-rule="evenodd" clip-rule="evenodd" d="M14.6193 5.32224H14.6233C17.6745 5.29603 19.0648 4.2363 20.6746 3.00819C21.4286 2.43323 22.2079 1.83917 23.2475 1.28065C24.0224 0.864765 24.7147 0.782119 25.3057 1.0345C26.5309 1.55792 27.0371 3.33477 27.0424 3.35299C27.1077 3.58937 27.352 3.72667 27.5882 3.66269C27.8245 3.59737 27.9634 3.35344 27.8982 3.11705C27.8742 3.0273 27.2778 0.914084 25.6587 0.219162C24.8048 -0.147407 23.8536 -0.0532095 22.8274 0.498195C21.7257 1.0896 20.8815 1.73342 20.1364 2.30127C18.591 3.48006 17.3707 4.41004 14.6153 4.43358C14.3702 4.4358 14.173 4.63619 14.1753 4.88191C14.1775 5.12584 14.3755 5.32223 14.6193 5.32223" fill=""/>
</g>
</svg>
