<svg width="30" height="40" viewBox="0 0 30 40" fill="" xmlns="http://www.w3.org/2000/svg">
<mask id="mask0_0_391" style="mask-type:alpha" maskUnits="userSpaceOnUse" x="0" y="0" width="30" height="40">
<path fill-rule="evenodd" clip-rule="evenodd" d="M0 40V1e-05H29.5971V40H0Z" fill=""/>
</mask>
<g mask="url(#mask0_0_391)">
<path fill-rule="evenodd" clip-rule="evenodd" d="M17.7184 31.1388C17.6196 31.1388 17.523 31.1057 17.4445 31.043L15.3492 29.3806C15.1582 29.2292 15.126 28.9516 15.2778 28.7605C15.4295 28.5694 15.7061 28.5368 15.8971 28.689L17.5609 30.009L19.5733 25.8398L18.7643 24.3755L15.1305 28.5301C14.9624 28.7221 14.6342 28.7221 14.4662 28.5301L10.8319 24.3755L10.0229 25.8398L12.0357 30.009L13.6995 28.689C13.8896 28.5368 14.1671 28.5694 14.3188 28.7605C14.4706 28.9516 14.4379 29.2292 14.2474 29.3806L12.1521 31.043C12.0476 31.1265 11.9099 31.1565 11.7794 31.1278C11.6488 31.0978 11.539 31.01 11.4808 30.8895L9.12879 26.0177C9.0666 25.8888 9.07101 25.7379 9.14026 25.6125L10.3639 23.398C10.4331 23.2722 10.5597 23.1879 10.7031 23.1729C10.8456 23.1583 10.9872 23.2131 11.082 23.3212L14.7983 27.5694L18.5142 23.3212C18.609 23.2131 18.7506 23.1583 18.8931 23.1729C19.036 23.1879 19.1626 23.2722 19.2323 23.398L20.4559 25.6125C20.5252 25.7379 20.5296 25.8888 20.4669 26.0177L18.1154 30.8895C18.0576 31.01 17.9478 31.0978 17.8172 31.1278C17.7842 31.1348 17.7511 31.1388 17.7184 31.1388" fill=""/>
<path fill-rule="evenodd" clip-rule="evenodd" d="M9.88501 38.3108H1.84849C1.60427 38.3108 1.40688 38.1129 1.40688 37.8681C1.40688 37.6232 1.60427 37.4253 1.84849 37.4253H9.88501C10.1292 37.4253 10.3266 37.6232 10.3266 37.8681C10.3266 38.1129 10.1292 38.3108 9.88501 38.3108Z" fill=""/>
<path fill-rule="evenodd" clip-rule="evenodd" d="M15.8032 31.767H13.7943C13.6246 31.767 13.4695 31.6684 13.3963 31.5145L12.6977 30.039C12.5933 29.8187 12.6871 29.5546 12.9071 29.4498C13.1261 29.3454 13.3897 29.4392 13.4941 29.6595L14.0728 30.8824H15.5246L16.1038 29.6595C16.2078 29.4392 16.4718 29.3454 16.6908 29.4498C16.9108 29.5546 17.0046 29.8187 16.8997 30.039L16.2012 31.5145C16.128 31.6684 15.9733 31.767 15.8032 31.767" fill=""/>
<path fill-rule="evenodd" clip-rule="evenodd" d="M13.0974 40C13.085 40 13.0722 39.9996 13.0594 39.9982C12.8163 39.9775 12.636 39.7643 12.6568 39.5211L13.3573 31.2847C13.3776 31.0415 13.5871 30.8566 13.835 30.8826C14.0781 30.9033 14.2584 31.1165 14.2376 31.3597L13.5372 39.5961C13.5177 39.8261 13.3246 40 13.0974 40Z" fill=""/>
<path fill-rule="evenodd" clip-rule="evenodd" d="M16.5026 40C16.2768 40 16.0849 39.8261 16.0656 39.5962L15.3695 31.3598C15.3489 31.1166 15.528 30.9034 15.7696 30.8827C16.0138 30.8571 16.2237 31.0416 16.2443 31.2848L16.9404 39.5211C16.961 39.7643 16.7819 39.9775 16.5403 39.9983C16.5276 39.9996 16.5148 40 16.5026 40" fill=""/>
<path fill-rule="evenodd" clip-rule="evenodd" d="M7.96073 38.3108C7.7172 38.3108 7.52035 38.1135 7.52035 37.8694V32.2224H6.07634V37.8694C6.07634 38.1135 5.87904 38.3108 5.63596 38.3108C5.39243 38.3108 5.19558 38.1135 5.19558 37.8694V31.781C5.19558 31.5369 5.39243 31.3396 5.63596 31.3396H7.96074C8.20427 31.3396 8.40112 31.5369 8.40112 31.781V37.8694C8.40112 38.1135 8.20427 38.3108 7.96074 38.3108" fill=""/>
<path fill-rule="evenodd" clip-rule="evenodd" d="M6.5452 33.8595H5.63629C5.3925 33.8595 5.19465 33.6616 5.19465 33.4167C5.19465 33.1719 5.39251 32.974 5.63629 32.974H6.5452C6.78942 32.974 6.98683 33.1719 6.98683 33.4167C6.98683 33.6616 6.78942 33.8595 6.5452 33.8595Z" fill=""/>
<path fill-rule="evenodd" clip-rule="evenodd" d="M6.5452 36.0856H5.63629C5.3925 36.0856 5.19465 35.8877 5.19465 35.6429C5.19465 35.398 5.39251 35.2001 5.63629 35.2001H6.5452C6.78942 35.2001 6.98683 35.398 6.98683 35.6429C6.98683 35.8877 6.78942 36.0856 6.5452 36.0856Z" fill=""/>
<path fill-rule="evenodd" clip-rule="evenodd" d="M3.96767 38.3108C3.72283 38.3108 3.52493 38.1133 3.52493 37.8689V33.9722C3.52493 33.7279 3.72284 33.5303 3.96767 33.5303C4.21251 33.5303 4.41042 33.7279 4.41042 33.9722V37.8689C4.41042 38.1133 4.21251 38.3108 3.96767 38.3108Z" fill=""/>
<path fill-rule="evenodd" clip-rule="evenodd" d="M5.60238 12.5425H23.9958C23.7892 11.4925 22.8619 10.698 21.7523 10.698H7.84588C6.73627 10.698 5.80894 11.4925 5.60238 12.5425ZM24.48 13.4253H5.11819C4.87455 13.4253 4.67682 13.228 4.67682 12.9839C4.67682 11.2369 6.09849 9.81528 7.84589 9.81528H21.7523C23.4997 9.81528 24.9213 11.2369 24.9213 12.9839C24.9213 13.228 24.7236 13.4253 24.48 13.4253" fill=""/>
<path fill-rule="evenodd" clip-rule="evenodd" d="M23.3102 10.6961C23.0657 10.6961 22.8689 10.4989 22.8689 10.2549C22.8689 8.34302 22.1879 6.49031 20.9521 5.03867C19.7036 3.5663 17.9717 2.5903 16.0748 2.28939C15.8347 2.25145 15.6701 2.02554 15.7081 1.78507C15.7465 1.54416 15.9724 1.37782 16.213 1.41842C18.3182 1.75154 20.2402 2.83431 21.6252 4.46729C22.996 6.07778 23.7516 8.13345 23.7516 10.2549C23.7516 10.4989 23.5539 10.6961 23.3102 10.6961" fill=""/>
<path fill-rule="evenodd" clip-rule="evenodd" d="M6.28773 10.6961C6.04368 10.6961 5.84643 10.4988 5.84643 10.2548C5.84643 8.13296 6.6015 6.07771 7.97219 4.46634C9.35656 2.83423 11.2789 1.75144 13.3835 1.41832C13.6231 1.37728 13.8499 1.54407 13.8883 1.78498C13.9267 2.02545 13.7621 2.25136 13.5216 2.2893C11.6253 2.59023 9.89318 3.56623 8.64517 5.03773C7.40952 6.49026 6.72903 8.34254 6.72903 10.2548C6.72903 10.4988 6.53177 10.6961 6.28773 10.6961Z" fill=""/>
<path fill-rule="evenodd" clip-rule="evenodd" d="M16.1398 8.35749C15.8963 8.35749 15.6994 8.16023 15.6994 7.91621V1.78633C15.6994 1.28812 15.2951 0.883463 14.7984 0.883463C14.3012 0.883463 13.8969 1.28812 13.8969 1.78633V7.91621C13.8969 8.16024 13.7 8.35749 13.4565 8.35749C13.213 8.35749 13.0161 8.16023 13.0161 7.91621V1.78633C13.0161 0.80182 13.8159 0.000892413 14.7984 0.000892413C15.7809 0.000892413 16.5802 0.80182 16.5802 1.78633V7.91621C16.5802 8.16024 16.3834 8.35749 16.1398 8.35749Z" fill=""/>
<path fill-rule="evenodd" clip-rule="evenodd" d="M10.8644 6.51585C10.6196 6.51585 10.4217 6.31835 10.4217 6.07401V2.87905C10.4217 2.63471 10.6196 2.43721 10.8644 2.43721C11.1093 2.43721 11.3072 2.63471 11.3072 2.87905V6.07401C11.3072 6.31835 11.1093 6.51585 10.8644 6.51585Z" fill=""/>
<path fill-rule="evenodd" clip-rule="evenodd" d="M18.7377 6.51585C18.4956 6.51585 18.2999 6.31835 18.2999 6.07401V2.87905C18.2999 2.63471 18.4956 2.43721 18.7377 2.43721C18.9798 2.43721 19.1755 2.63471 19.1755 2.87905V6.07401C19.1755 6.31835 18.9798 6.51585 18.7377 6.51585Z" fill=""/>
<path fill-rule="evenodd" clip-rule="evenodd" d="M7.9765 13.4253V15.6158C7.9765 19.3777 11.0374 22.4381 14.7993 22.4381C18.5611 22.4381 21.6216 19.3776 21.6216 15.6158V13.4253H7.9765ZM14.7993 23.3209C10.5506 23.3209 7.09375 19.8645 7.09375 15.6158V12.9839C7.09375 12.7398 7.29104 12.5425 7.53512 12.5425H22.063C22.307 12.5425 22.5043 12.7398 22.5043 12.9839V15.6158C22.5043 19.8645 19.0479 23.3209 14.7993 23.3209Z" fill=""/>
<path fill-rule="evenodd" clip-rule="evenodd" d="M7.57816 16.8569C7.42116 16.8569 7.26903 16.7734 7.18854 16.6255C7.07223 16.411 7.15228 16.143 7.36722 16.0269C8.43834 15.4485 9.23659 13.5399 9.45374 12.8538C9.52715 12.6207 9.77746 12.4909 10.0083 12.5655C10.2414 12.6388 10.3705 12.8869 10.2971 13.1191C10.2608 13.2339 9.39049 15.9385 7.78824 16.8039C7.72101 16.8397 7.64893 16.8569 7.57817 16.8569" fill=""/>
<path fill-rule="evenodd" clip-rule="evenodd" d="M22.0203 16.8569C21.9498 16.8569 21.8779 16.8397 21.8109 16.8039C20.2137 15.9386 19.3461 13.234 19.31 13.1192C19.2368 12.887 19.3655 12.6388 19.5974 12.5655C19.8311 12.4909 20.0775 12.6212 20.1507 12.8534C20.3685 13.5404 21.166 15.4498 22.2306 16.0269C22.4449 16.143 22.5247 16.411 22.4087 16.6255C22.3285 16.7734 22.1768 16.8569 22.0203 16.8569Z" fill=""/>
<path fill-rule="evenodd" clip-rule="evenodd" d="M10.8085 24.0554C10.5637 24.0554 10.3658 23.8578 10.3658 23.6133V21.8387C10.3658 21.5946 10.5637 21.3965 10.8085 21.3965C11.0534 21.3965 11.2513 21.5946 11.2513 21.8387V23.6133C11.2513 23.8578 11.0534 24.0554 10.8085 24.0554Z" fill=""/>
<path fill-rule="evenodd" clip-rule="evenodd" d="M18.7877 24.0554C18.5429 24.0554 18.345 23.8578 18.345 23.6133V21.8387C18.345 21.5946 18.5429 21.3965 18.7877 21.3965C19.0326 21.3965 19.2305 21.5946 19.2305 21.8387V23.6133C19.2305 23.8578 19.0326 24.0554 18.7877 24.0554Z" fill=""/>
<path fill-rule="evenodd" clip-rule="evenodd" d="M0.441172 40C0.197201 40 0 39.8026 0 39.5585V31.9819C0 30.0251 1.23926 28.2736 3.08293 27.6232L9.37323 25.4046C9.60175 25.3256 9.85455 25.4448 9.93572 25.6748C10.0169 25.9044 9.89646 26.1565 9.66616 26.2377L3.37587 28.456C1.88425 28.9823 0.882343 30.3991 0.882343 31.9819V39.5585C0.882343 39.8026 0.685142 40 0.441172 40Z" fill=""/>
<path fill-rule="evenodd" clip-rule="evenodd" d="M29.156 40C28.912 40 28.7148 39.8028 28.7148 39.5588V31.9873C28.7148 30.4055 27.7129 28.9896 26.2217 28.4637L19.931 26.2469C19.7007 26.1658 19.5802 25.9138 19.6614 25.6844C19.7421 25.4541 19.9949 25.3349 20.2239 25.4144L26.5147 27.6315C28.3583 28.2814 29.5972 30.0318 29.5972 31.9873V39.5587C29.5972 39.8027 29.4 40 29.156 40" fill=""/>
</g>
</svg>
